<svg xmlns="http://www.w3.org/2000/svg" xmlns:xlink="http://www.w3.org/1999/xlink" contentStyleType="text/css" height="409px" preserveAspectRatio="none" style="width:266px;height:409px;background:#FFFFFF;" version="1.1" viewBox="0 0 266 409" width="266px" zoomAndPan="magnify"><defs/><g><!--class User--><g id="elem_User"><rect codeLine="1" fill="#F1F1F1" height="113.1875" id="User" rx="2.5" ry="2.5" style="stroke:#181818;stroke-width:0.5;" width="137.6377" x="13.5" y="7"/><ellipse cx="62.1138" cy="23" fill="#ADD1B2" rx="11" ry="11" style="stroke:#181818;stroke-width:1.0;"/><path d="M65.0825,28.6406 Q64.5044,28.9375 63.8638,29.0781 Q63.2231,29.2344 62.52,29.2344 Q60.02,29.2344 58.6919,27.5938 Q57.3794,25.9375 57.3794,22.8125 Q57.3794,19.6875 58.6919,18.0313 Q60.02,16.375 62.52,16.375 Q63.2231,16.375 63.8638,16.5313 Q64.52,16.6875 65.0825,16.9844 L65.0825,19.7031 Q64.4575,19.125 63.8638,18.8594 Q63.27,18.5781 62.645,18.5781 Q61.3013,18.5781 60.6138,19.6563 Q59.9263,20.7188 59.9263,22.8125 Q59.9263,24.9063 60.6138,25.9844 Q61.3013,27.0469 62.645,27.0469 Q63.27,27.0469 63.8638,26.7813 Q64.4575,26.5 65.0825,25.9219 L65.0825,28.6406 Z " fill="#000000"/><text fill="#000000" font-family="sans-serif" font-size="14" lengthAdjust="spacing" textLength="31.9102" x="82.6138" y="27.8467">User</text><line style="stroke:#181818;stroke-width:0.5;" x1="14.5" x2="150.1377" y1="39" y2="39"/><text fill="#000000" font-family="sans-serif" font-size="14" lengthAdjust="spacing" textLength="39.7031" x="19.5" y="55.9951">name</text><text fill="#000000" font-family="sans-serif" font-size="14" lengthAdjust="spacing" textLength="38.6094" x="19.5" y="72.292">email</text><text fill="#000000" font-family="sans-serif" font-size="14" lengthAdjust="spacing" textLength="65.6729" x="19.5" y="88.5889">passhash</text><text fill="#000000" font-family="sans-serif" font-size="14" lengthAdjust="spacing" textLength="125.6377" x="19.5" y="104.8857">isAdmin : boolean</text><line style="stroke:#181818;stroke-width:0.5;" x1="14.5" x2="150.1377" y1="112.1875" y2="112.1875"/></g><!--class Message--><g id="elem_Message"><rect codeLine="8" fill="#F1F1F1" height="64.2969" id="Message" rx="2.5" ry="2.5" style="stroke:#181818;stroke-width:0.5;" width="93.3594" x="7" y="338"/><ellipse cx="22" cy="354" fill="#ADD1B2" rx="11" ry="11" style="stroke:#181818;stroke-width:1.0;"/><path d="M24.9688,359.6406 Q24.3906,359.9375 23.75,360.0781 Q23.1094,360.2344 22.4063,360.2344 Q19.9063,360.2344 18.5781,358.5938 Q17.2656,356.9375 17.2656,353.8125 Q17.2656,350.6875 18.5781,349.0313 Q19.9063,347.375 22.4063,347.375 Q23.1094,347.375 23.75,347.5313 Q24.4063,347.6875 24.9688,347.9844 L24.9688,350.7031 Q24.3438,350.125 23.75,349.8594 Q23.1563,349.5781 22.5313,349.5781 Q21.1875,349.5781 20.5,350.6563 Q19.8125,351.7188 19.8125,353.8125 Q19.8125,355.9063 20.5,356.9844 Q21.1875,358.0469 22.5313,358.0469 Q23.1563,358.0469 23.75,357.7813 Q24.3438,357.5 24.9688,356.9219 L24.9688,359.6406 Z " fill="#000000"/><text fill="#000000" font-family="sans-serif" font-size="14" lengthAdjust="spacing" textLength="61.3594" x="36" y="358.8467">Message</text><line style="stroke:#181818;stroke-width:0.5;" x1="8" x2="99.3594" y1="370" y2="370"/><text fill="#000000" font-family="sans-serif" font-size="14" lengthAdjust="spacing" textLength="53.6006" x="13" y="386.9951">content</text><line style="stroke:#181818;stroke-width:0.5;" x1="8" x2="99.3594" y1="394.2969" y2="394.2969"/></g><!--class Group--><g id="elem_Group"><rect codeLine="12" fill="#F1F1F1" height="64.2969" id="Group" rx="2.5" ry="2.5" style="stroke:#181818;stroke-width:0.5;" width="74.9297" x="96" y="197"/><ellipse cx="111" cy="213" fill="#ADD1B2" rx="11" ry="11" style="stroke:#181818;stroke-width:1.0;"/><path d="M113.9688,218.6406 Q113.3906,218.9375 112.75,219.0781 Q112.1094,219.2344 111.4063,219.2344 Q108.9063,219.2344 107.5781,217.5938 Q106.2656,215.9375 106.2656,212.8125 Q106.2656,209.6875 107.5781,208.0313 Q108.9063,206.375 111.4063,206.375 Q112.1094,206.375 112.75,206.5313 Q113.4063,206.6875 113.9688,206.9844 L113.9688,209.7031 Q113.3438,209.125 112.75,208.8594 Q112.1563,208.5781 111.5313,208.5781 Q110.1875,208.5781 109.5,209.6563 Q108.8125,210.7188 108.8125,212.8125 Q108.8125,214.9063 109.5,215.9844 Q110.1875,217.0469 111.5313,217.0469 Q112.1563,217.0469 112.75,216.7813 Q113.3438,216.5 113.9688,215.9219 L113.9688,218.6406 Z " fill="#000000"/><text fill="#000000" font-family="sans-serif" font-size="14" lengthAdjust="spacing" textLength="42.9297" x="125" y="217.8467">Group</text><line style="stroke:#181818;stroke-width:0.5;" x1="97" x2="169.9297" y1="229" y2="229"/><text fill="#000000" font-family="sans-serif" font-size="14" lengthAdjust="spacing" textLength="39.7031" x="102" y="245.9951">name</text><line style="stroke:#181818;stroke-width:0.5;" x1="97" x2="169.9297" y1="253.2969" y2="253.2969"/></g><!--link User to Message--><g id="link_User_Message"><path codeLine="16" d="M61.76,120.09 C54.07,143.48 46.31,171.21 42.5,197 C38.35,225.14 41.06,232.59 42.5,261 C43.82,286.98 46.91,316.33 49.48,337.87 " fill="none" id="User-Message" style="stroke:#181818;stroke-width:1.0;"/><text fill="#000000" font-family="sans-serif" font-size="13" lengthAdjust="spacing" textLength="34.8486" x="43.5" y="233.5669">posts</text><text fill="#000000" font-family="sans-serif" font-size="13" lengthAdjust="spacing" textLength="8.271" x="50.6308" y="140.3649">1</text><text fill="#000000" font-family="sans-serif" font-size="13" lengthAdjust="spacing" textLength="8.2393" x="39.8135" y="326.7463">n</text></g><!--link Group to Message--><g id="link_Group_Message"><path codeLine="17" d="M115.55,261.19 C102.37,284.09 84.55,315.04 71.39,337.91 " fill="none" id="Group-Message" style="stroke:#181818;stroke-width:1.0;"/><text fill="#000000" font-family="sans-serif" font-size="13" lengthAdjust="spacing" textLength="55.0278" x="98.5" y="304.0669">contains</text><text fill="#000000" font-family="sans-serif" font-size="13" lengthAdjust="spacing" textLength="8.271" x="103.058" y="281.426">1</text><text fill="#000000" font-family="sans-serif" font-size="13" lengthAdjust="spacing" textLength="8.2393" x="66.2424" y="326.7945">n</text></g><!--link User to Group--><g id="link_User_Group"><path codeLine="19" d="M73.15,120.06 C72.57,135.66 73.95,152.35 79.5,167 C83.61,177.84 90.63,188 98.27,196.8 " fill="none" id="User-Group" style="stroke:#181818;stroke-width:1.0;"/><text fill="#000000" font-family="sans-serif" font-size="13" lengthAdjust="spacing" textLength="69.437" x="80.5" y="163.0669">is member</text><text fill="#000000" font-family="sans-serif" font-size="13" lengthAdjust="spacing" textLength="8.2393" x="63.4781" y="140.3311">n</text><text fill="#000000" font-family="sans-serif" font-size="13" lengthAdjust="spacing" textLength="8.2393" x="82.5771" y="186.0348">n</text></g><!--link User to Group--><g id="link_User_Group"><path codeLine="20" d="M138.51,120.33 C145.03,129.61 150.71,139.61 154.5,150 C160.03,165.15 156.35,182.43 150.63,196.87 " fill="none" id="User-Group-1" style="stroke:#181818;stroke-width:1.0;"/><text fill="#000000" font-family="sans-serif" font-size="13" lengthAdjust="spacing" textLength="101.0991" x="157.5" y="163.0669">create and own</text><text fill="#000000" font-family="sans-serif" font-size="13" lengthAdjust="spacing" textLength="8.271" x="136.8873" y="140.2338">1</text><text fill="#000000" font-family="sans-serif" font-size="13" lengthAdjust="spacing" textLength="8.2393" x="145.37" y="185.7463">n</text></g><!--SRC=[ROsn3i8m34JtV8MLlGCh6nCJ8n_WfXQDbDXH7CI0-7USeeO1fhDyz-v2GbMuAjMd0s3CP48POp8jvgsegvrHJqkE34UOHH8XkvTpOOClf8etwdmGRiJjwvshtCjejdTV0d_mC4tWsU-mzHRHfcu3_WTwEKRMlOH7vZDZaQYGAS_c_WoDJAY4ZG1v0Ndm6m00]--></g></svg>