<svg xmlns="http://www.w3.org/2000/svg" xmlns:xlink="http://www.w3.org/1999/xlink" contentStyleType="text/css" height="242px" preserveAspectRatio="none" style="width:430px;height:242px;background:#FFFFFF;" version="1.1" viewBox="0 0 430 242" width="430px" zoomAndPan="magnify"><defs/><g><rect fill="#808080" height="11.6406" style="stroke:none;stroke-width:1.0;" width="235.9619" x="186.2314" y="5"/><text fill="#FFFFFF" font-family="sans-serif" font-size="10" lengthAdjust="spacing" textLength="235.9619" x="186.2314" y="14.2822">{ Utilisateur | Alice@aol.fr | [Se déconnecter] }</text><text fill="#000000" font-family="sans-serif" font-size="12" lengthAdjust="spacing" textLength="171.1934" x="7" y="30.7793">Changer votre mot de passe</text><text fill="#000000" font-family="sans-serif" font-size="12" lengthAdjust="spacing" textLength="138.4043" x="183.1934" y="30.7793">Nouveau mot de passe</text><line style="stroke:#000000;stroke-width:1.0;" x1="181.1934" x2="344.1934" y1="33.6094" y2="33.6094"/><line style="stroke:#000000;stroke-width:1.0;" x1="181.1934" x2="181.1934" y1="30.6094" y2="32.6094"/><line style="stroke:#000000;stroke-width:1.0;" x1="344.1934" x2="344.1934" y1="30.6094" y2="32.6094"/><rect fill="#EEEEEE" height="17.9688" rx="5" ry="5" style="stroke:#000000;stroke-width:2.5;" width="68" x="350.6934" y="22.1406"/><text fill="#000000" font-family="sans-serif" font-size="12" lengthAdjust="spacing" textLength="48.5215" x="360.4326" y="35.2793">Modifier</text><line style="stroke:#000000;stroke-width:1.0;" x1="6" x2="179.1934" y1="18.6406" y2="18.6406"/><line style="stroke:#000000;stroke-width:1.0;" x1="179.1934" x2="347.1934" y1="43.6094" y2="43.6094"/><line style="stroke:#000000;stroke-width:1.0;" x1="179.1934" x2="347.1934" y1="18.6406" y2="18.6406"/><line style="stroke:#000000;stroke-width:1.0;" x1="347.1934" x2="422.1934" y1="43.6094" y2="43.6094"/><line style="stroke:#000000;stroke-width:1.0;" x1="347.1934" x2="422.1934" y1="18.6406" y2="18.6406"/><line style="stroke:#000000;stroke-width:1.0;" x1="6" x2="179.1934" y1="43.6094" y2="43.6094"/><line style="stroke:#000000;stroke-width:1.0;" x1="6" x2="6" y1="18.6406" y2="43.6094"/><line style="stroke:#000000;stroke-width:1.0;" x1="422.1934" x2="422.1934" y1="18.6406" y2="43.6094"/><text fill="#000000" font-family="sans-serif" font-size="12" font-weight="bold" lengthAdjust="spacing" textLength="176.0391" x="8" y="72.7168">Ceux dont je suis membre</text><ellipse cx="13.5" cy="84.0156" fill="#000000" rx="2.5" ry="2.5" style="stroke:#000000;stroke-width:0.0;"/><text fill="#000000" font-family="sans-serif" font-size="12" lengthAdjust="spacing" textLength="51.4336" x="20" y="88.6855">Ensimag</text><ellipse cx="13.5" cy="99.9844" fill="#000000" rx="2.5" ry="2.5" style="stroke:#000000;stroke-width:0.0;"/><text fill="#000000" font-family="sans-serif" font-size="12" lengthAdjust="spacing" textLength="78.4629" x="20" y="104.6543">Grenoble INP</text><ellipse cx="13.5" cy="115.9531" fill="#000000" rx="2.5" ry="2.5" style="stroke:#000000;stroke-width:0.0;"/><text fill="#000000" font-family="sans-serif" font-size="12" lengthAdjust="spacing" textLength="75.9668" x="20" y="120.623">Club gaming</text><line style="stroke:#AAAAAA;stroke-width:1.0;" x1="8" x2="185.0391" y1="128.9531" y2="128.9531"/><text fill="#000000" font-family="sans-serif" font-size="12" font-weight="bold" lengthAdjust="spacing" textLength="147.5391" x="8" y="144.5918">Ceux que j'administre</text><ellipse cx="13.5" cy="155.8906" fill="#000000" rx="2.5" ry="2.5" style="stroke:#000000;stroke-width:0.0;"/><text fill="#000000" font-family="sans-serif" font-size="12" font-weight="bold" lengthAdjust="spacing" textLength="85.9277" x="20" y="160.5605">Club Gaming</text><ellipse cx="13.5" cy="171.8594" fill="#000000" rx="2.5" ry="2.5" style="stroke:#000000;stroke-width:0.0;"/><text fill="#000000" font-family="sans-serif" font-size="12" lengthAdjust="spacing" textLength="49.7109" x="20" y="176.5293">Running</text><text fill="#000000" font-family="sans-serif" font-size="12" font-style="italic" lengthAdjust="spacing" textLength="147.7969" x="11" y="192.498">nom du nouveau groupe</text><line style="stroke:#000000;stroke-width:1.0;" x1="9" x2="180" y1="195.3281" y2="195.3281"/><line style="stroke:#000000;stroke-width:1.0;" x1="9" x2="9" y1="192.3281" y2="194.3281"/><line style="stroke:#000000;stroke-width:1.0;" x1="180" x2="180" y1="192.3281" y2="194.3281"/><rect fill="#EEEEEE" height="17.9688" rx="5" ry="5" style="stroke:#000000;stroke-width:2.5;" width="44" x="10.5" y="201.8281"/><text fill="#000000" font-family="sans-serif" font-size="12" lengthAdjust="spacing" textLength="33.0117" x="15.9941" y="214.9668">Créer</text><line style="stroke:#000000;stroke-width:1.0;" x1="7" x2="185.0391" y1="53.5938" y2="53.5938"/><line style="stroke:#000000;stroke-width:1.0;" x1="7" x2="185.0391" y1="223.2969" y2="223.2969"/><line style="stroke:#000000;stroke-width:1.0;" x1="7" x2="7" y1="53.5938" y2="76.5469"/><line style="stroke:#000000;stroke-width:1.0;" x1="185.0391" x2="185.0391" y1="53.5938" y2="76.5469"/><line style="stroke:#000000;stroke-width:1.0;" x1="7" x2="7" y1="198.3281" y2="223.2969"/><line style="stroke:#000000;stroke-width:1.0;" x1="185.0391" x2="185.0391" y1="198.3281" y2="223.2969"/><line style="stroke:#000000;stroke-width:1.0;" x1="7" x2="7" y1="164.3906" y2="180.3594"/><line style="stroke:#000000;stroke-width:1.0;" x1="185.0391" x2="185.0391" y1="164.3906" y2="180.3594"/><line style="stroke:#000000;stroke-width:1.0;" x1="7" x2="7" y1="132.4531" y2="148.4219"/><line style="stroke:#000000;stroke-width:1.0;" x1="185.0391" x2="185.0391" y1="132.4531" y2="148.4219"/><line style="stroke:#000000;stroke-width:1.0;" x1="7" x2="7" y1="108.4844" y2="124.4531"/><line style="stroke:#000000;stroke-width:1.0;" x1="185.0391" x2="185.0391" y1="108.4844" y2="124.4531"/><line style="stroke:#000000;stroke-width:1.0;" x1="7" x2="7" y1="76.5469" y2="92.5156"/><line style="stroke:#000000;stroke-width:1.0;" x1="185.0391" x2="185.0391" y1="76.5469" y2="92.5156"/><line style="stroke:#000000;stroke-width:1.0;" x1="7" x2="7" y1="180.3594" y2="198.3281"/><line style="stroke:#000000;stroke-width:1.0;" x1="185.0391" x2="185.0391" y1="180.3594" y2="198.3281"/><line style="stroke:#000000;stroke-width:1.0;" x1="7" x2="7" y1="148.4219" y2="164.3906"/><line style="stroke:#000000;stroke-width:1.0;" x1="185.0391" x2="185.0391" y1="148.4219" y2="164.3906"/><line style="stroke:#000000;stroke-width:1.0;" x1="7" x2="7" y1="124.4531" y2="132.4531"/><line style="stroke:#000000;stroke-width:1.0;" x1="185.0391" x2="185.0391" y1="124.4531" y2="132.4531"/><line style="stroke:#000000;stroke-width:1.0;" x1="7" x2="7" y1="92.5156" y2="108.4844"/><line style="stroke:#000000;stroke-width:1.0;" x1="185.0391" x2="185.0391" y1="92.5156" y2="108.4844"/><rect fill="#FFFFFF" height="13.9688" style="stroke:#FFFFFF;stroke-width:1.0;" width="76.5527" x="13" y="46.6094"/><text fill="#000000" font-family="sans-serif" font-size="12" lengthAdjust="spacing" textLength="76.5527" x="13" y="57.748">Mes groupes</text><text fill="#000000" font-family="sans-serif" font-size="12" lengthAdjust="spacing" textLength="117.0469" x="189.0391" y="73.7168">Ajouter un membre</text><rect fill="#EEEEEE" height="16.9688" style="stroke:#000000;stroke-width:1.0;" width="135" x="189.0391" y="78.5469"/><text fill="#000000" font-family="sans-serif" font-size="12" lengthAdjust="spacing" textLength="108.9609" x="191.0391" y="91.6855">Steve@gmail.com</text><line style="stroke:#000000;stroke-width:1.0;" x1="313.0391" x2="313.0391" y1="78.5469" y2="95.5156"/><polygon fill="#000000" points="316.0391,84.5469,322.0391,84.5469,319.0391,90.5156" style="stroke:#000000;stroke-width:1.0;"/><rect fill="#EEEEEE" height="17.9688" rx="5" ry="5" style="stroke:#000000;stroke-width:2.5;" width="68" x="329.5391" y="81.0469"/><text fill="#000000" font-family="sans-serif" font-size="12" lengthAdjust="spacing" textLength="43.5117" x="341.7832" y="94.1855">Ajouter</text><line style="stroke:#AAAAAA;stroke-width:1.0;" x1="189.0391" x2="326.0391" y1="107.0156" y2="107.0156"/><line style="stroke:#AAAAAA;stroke-width:1.0;" x1="327.0391" x2="417.0391" y1="107.0156" y2="107.0156"/><text fill="#000000" font-family="sans-serif" font-size="12" font-weight="bold" lengthAdjust="spacing" textLength="127.9395" x="189.0391" y="122.6543">Liste des membres</text><line style="stroke:#AAAAAA;stroke-width:1.0;" x1="189.0391" x2="326.0391" y1="130.9844" y2="130.9844"/><line style="stroke:#AAAAAA;stroke-width:1.0;" x1="327.0391" x2="417.0391" y1="130.9844" y2="130.9844"/><text fill="#000000" font-family="sans-serif" font-size="12" lengthAdjust="spacing" textLength="87.75" x="189.0391" y="146.623">Jihad@gmail.fr</text><rect fill="#EEEEEE" height="17.9688" rx="5" ry="5" style="stroke:#000000;stroke-width:2.5;" width="84" x="329.5391" y="137.9844"/><text fill="#000000" font-family="sans-serif" font-size="12" lengthAdjust="spacing" textLength="62.7305" x="340.1738" y="151.123">Supprimer</text><text fill="#000000" font-family="sans-serif" font-size="12" lengthAdjust="spacing" textLength="107.5957" x="189.0391" y="171.5918">steve@gmail.com</text><rect fill="#EEEEEE" height="17.9688" rx="5" ry="5" style="stroke:#000000;stroke-width:2.5;" width="84" x="329.5391" y="162.9531"/><text fill="#000000" font-family="sans-serif" font-size="12" lengthAdjust="spacing" textLength="62.7305" x="340.1738" y="176.0918">Supprimer</text><text fill="#000000" font-family="sans-serif" font-size="12" lengthAdjust="spacing" textLength="100.6582" x="189.0391" y="196.5605">john@gmail.com</text><rect fill="#EEEEEE" height="17.9688" rx="5" ry="5" style="stroke:#000000;stroke-width:2.5;" width="84" x="329.5391" y="187.9219"/><text fill="#000000" font-family="sans-serif" font-size="12" lengthAdjust="spacing" textLength="62.7305" x="340.1738" y="201.0605">Supprimer</text><text fill="#000000" font-family="sans-serif" font-size="12" lengthAdjust="spacing" textLength="107.9766" x="189.0391" y="221.5293">mathieu@gmail.fr</text><rect fill="#EEEEEE" height="17.9688" rx="5" ry="5" style="stroke:#000000;stroke-width:2.5;" width="84" x="329.5391" y="212.8906"/><text fill="#000000" font-family="sans-serif" font-size="12" lengthAdjust="spacing" textLength="62.7305" x="340.1738" y="226.0293">Supprimer</text><line style="stroke:#000000;stroke-width:1.0;" x1="187.0391" x2="418.0391" y1="53.5938" y2="53.5938"/><line style="stroke:#000000;stroke-width:1.0;" x1="187.0391" x2="418.0391" y1="235.3594" y2="235.3594"/><line style="stroke:#000000;stroke-width:1.0;" x1="187.0391" x2="187.0391" y1="53.5938" y2="235.3594"/><line style="stroke:#000000;stroke-width:1.0;" x1="418.0391" x2="418.0391" y1="53.5938" y2="235.3594"/><rect fill="#FFFFFF" height="13.9688" style="stroke:#FFFFFF;stroke-width:1.0;" width="190.2656" x="193.0391" y="46.6094"/><text fill="#000000" font-family="sans-serif" font-size="12" lengthAdjust="spacing" textLength="88.0195" x="193.0391" y="57.748">Administration</text><text fill="#000000" font-family="sans-serif" font-size="12" font-weight="bold" lengthAdjust="spacing" textLength="98.4316" x="284.873" y="57.748">"Club Gaming"</text><!--SRC=[TPFTRjem5CVl_HH7kLcB1ACjGXL220eh6YCT6j2RgaWcEIHcZityaHKL7gZFqHVR2GHrhTJanZuVF__FyN7NEcwSvTAnjdLRYHsM8e_Hm3C3cE6JwqcHACnGEJ0YIHsPRtZqUsYqLt5VIsqWCNnBvbkjtD7mDnKEsPwrltvWmjm9AIntw0tiWDWHThcMjLMnVPWYnAylaLOA8uVc4VRicJqlM3_bAg7yN3k3a6a7CSA6MukK5TnfdoFtx-n1WGjrB5Q2EEp82T6ILkqtQ5cbqaV_135fXZM2zS92XjdIOAN2Al1DMP7nX5P3Wqel9SBtkmbj-z8l8U6PK0chqdS2_V48woyy9eUmhgIqbvr3_F0ONu5VNgbY5RH5H-aCOW-gL7yK5W23XxvvVJcetf7ee7TYSYUqAfZ1Vz0WeD9wQ-sfN-1LMGDRJ1tcs4qoBcGjqjcYwCSfxF6WV5VA7nER-ewd-Yr9V_EFHChZabDUajziZCWE7Fl-b8_kjKxLvzwCkrIW_nI-B_ykglWmeMmYkNBpS0mv6biquw9sMRzir9fdK-vWv2NKcr2_QbqqMbVN40vcKBZFsTbmCWQhlOceqAALOkcBPfwp4SzvSIkEpcp1pmsgqU37oK1Ja0kZLJ7yR7GVlWKq6zKRuM2AXfJ0VSW6kE9UEig8QEXKqeBvxBPwpSOqk9udn4R5-lHadDcsG7af_m40]--></g></svg>