<svg xmlns="http://www.w3.org/2000/svg" xmlns:xlink="http://www.w3.org/1999/xlink" contentStyleType="text/css" height="226px" preserveAspectRatio="none" style="width:283px;height:226px;background:#FFFFFF;" version="1.1" viewBox="0 0 283 226" width="283px" zoomAndPan="magnify"><defs/><g><text fill="#000000" font-family="sans-serif" font-size="12" lengthAdjust="spacing" textLength="33.293" x="8" y="33.1074">Email</text><text fill="#000000" font-family="sans-serif" font-size="12" lengthAdjust="spacing" textLength="33.293" x="46.293" y="33.1074">Email</text><line style="stroke:#000000;stroke-width:1.0;" x1="44.293" x2="87.293" y1="35.9375" y2="35.9375"/><line style="stroke:#000000;stroke-width:1.0;" x1="44.293" x2="44.293" y1="32.9375" y2="34.9375"/><line style="stroke:#000000;stroke-width:1.0;" x1="87.293" x2="87.293" y1="32.9375" y2="34.9375"/><text fill="#000000" font-family="sans-serif" font-size="12" lengthAdjust="spacing" textLength="79.8867" x="8" y="53.0762">Mot de passe</text><text fill="#000000" font-family="sans-serif" font-size="12" lengthAdjust="spacing" textLength="24" x="92.8867" y="53.0762">****</text><line style="stroke:#000000;stroke-width:1.0;" x1="90.8867" x2="173.8867" y1="55.9063" y2="55.9063"/><line style="stroke:#000000;stroke-width:1.0;" x1="90.8867" x2="90.8867" y1="52.9063" y2="54.9063"/><line style="stroke:#000000;stroke-width:1.0;" x1="173.8867" x2="173.8867" y1="52.9063" y2="54.9063"/><rect fill="#EEEEEE" height="17.9688" rx="5" ry="5" style="stroke:#000000;stroke-width:2.5;" width="28" x="9.5" y="63.4063"/><text fill="#000000" font-family="sans-serif" font-size="12" lengthAdjust="spacing" textLength="17.3145" x="14.8428" y="76.5449">OK</text><line style="stroke:#000000;stroke-width:1.0;" x1="6" x2="177.8867" y1="12.9844" y2="12.9844"/><line style="stroke:#000000;stroke-width:1.0;" x1="6" x2="177.8867" y1="84.875" y2="84.875"/><line style="stroke:#000000;stroke-width:1.0;" x1="6" x2="6" y1="12.9844" y2="39.9375"/><line style="stroke:#000000;stroke-width:1.0;" x1="177.8867" x2="177.8867" y1="39.9375" y2="59.9063"/><line style="stroke:#000000;stroke-width:1.0;" x1="177.8867" x2="177.8867" y1="12.9844" y2="39.9375"/><line style="stroke:#000000;stroke-width:1.0;" x1="6" x2="6" y1="59.9063" y2="84.875"/><line style="stroke:#000000;stroke-width:1.0;" x1="6" x2="6" y1="39.9375" y2="59.9063"/><line style="stroke:#000000;stroke-width:1.0;" x1="177.8867" x2="177.8867" y1="59.9063" y2="84.875"/><rect fill="#FFFFFF" height="13.9688" style="stroke:#FFFFFF;stroke-width:1.0;" width="80.748" x="12" y="6"/><text fill="#000000" font-family="sans-serif" font-size="12" lengthAdjust="spacing" textLength="80.748" x="12" y="17.1387">Se Connecter</text><text fill="#000000" font-family="sans-serif" font-size="12" lengthAdjust="spacing" textLength="28.0078" x="8" y="127.9512">Nom</text><text fill="#000000" font-family="sans-serif" font-size="12" lengthAdjust="spacing" textLength="28.0078" x="41.0078" y="127.9512">Nom</text><line style="stroke:#000000;stroke-width:1.0;" x1="39.0078" x2="74.0078" y1="130.7813" y2="130.7813"/><line style="stroke:#000000;stroke-width:1.0;" x1="39.0078" x2="39.0078" y1="127.7813" y2="129.7813"/><line style="stroke:#000000;stroke-width:1.0;" x1="74.0078" x2="74.0078" y1="127.7813" y2="129.7813"/><text fill="#000000" font-family="sans-serif" font-size="12" lengthAdjust="spacing" textLength="33.293" x="8" y="147.9199">Email</text><text fill="#000000" font-family="sans-serif" font-size="12" lengthAdjust="spacing" textLength="33.293" x="46.293" y="147.9199">Email</text><line style="stroke:#000000;stroke-width:1.0;" x1="44.293" x2="87.293" y1="150.75" y2="150.75"/><line style="stroke:#000000;stroke-width:1.0;" x1="44.293" x2="44.293" y1="147.75" y2="149.75"/><line style="stroke:#000000;stroke-width:1.0;" x1="87.293" x2="87.293" y1="147.75" y2="149.75"/><text fill="#000000" font-family="sans-serif" font-size="12" lengthAdjust="spacing" textLength="79.8867" x="8" y="167.8887">Mot de passe</text><text fill="#000000" font-family="sans-serif" font-size="12" lengthAdjust="spacing" textLength="24" x="92.8867" y="167.8887">****</text><line style="stroke:#000000;stroke-width:1.0;" x1="90.8867" x2="173.8867" y1="170.7188" y2="170.7188"/><line style="stroke:#000000;stroke-width:1.0;" x1="90.8867" x2="90.8867" y1="167.7188" y2="169.7188"/><line style="stroke:#000000;stroke-width:1.0;" x1="173.8867" x2="173.8867" y1="167.7188" y2="169.7188"/><text fill="#000000" font-family="sans-serif" font-size="12" lengthAdjust="spacing" textLength="178.8047" x="8" y="187.8574">Confirmer votre Mot de passe</text><text fill="#000000" font-family="sans-serif" font-size="12" lengthAdjust="spacing" textLength="24" x="191.8047" y="187.8574">****</text><line style="stroke:#000000;stroke-width:1.0;" x1="189.8047" x2="272.8047" y1="190.6875" y2="190.6875"/><line style="stroke:#000000;stroke-width:1.0;" x1="189.8047" x2="189.8047" y1="187.6875" y2="189.6875"/><line style="stroke:#000000;stroke-width:1.0;" x1="272.8047" x2="272.8047" y1="187.6875" y2="189.6875"/><rect fill="#EEEEEE" height="17.9688" rx="5" ry="5" style="stroke:#000000;stroke-width:2.5;" width="28" x="9.5" y="198.1875"/><text fill="#000000" font-family="sans-serif" font-size="12" lengthAdjust="spacing" textLength="17.3145" x="14.8428" y="211.3262">OK</text><line style="stroke:#000000;stroke-width:1.0;" x1="6" x2="276.8047" y1="107.8281" y2="107.8281"/><line style="stroke:#000000;stroke-width:1.0;" x1="6" x2="276.8047" y1="219.6563" y2="219.6563"/><line style="stroke:#000000;stroke-width:1.0;" x1="6" x2="6" y1="107.8281" y2="134.7813"/><line style="stroke:#000000;stroke-width:1.0;" x1="276.8047" x2="276.8047" y1="134.7813" y2="154.75"/><line style="stroke:#000000;stroke-width:1.0;" x1="276.8047" x2="276.8047" y1="107.8281" y2="134.7813"/><line style="stroke:#000000;stroke-width:1.0;" x1="6" x2="6" y1="194.6875" y2="219.6563"/><line style="stroke:#000000;stroke-width:1.0;" x1="6" x2="6" y1="174.7188" y2="194.6875"/><line style="stroke:#000000;stroke-width:1.0;" x1="276.8047" x2="276.8047" y1="194.6875" y2="219.6563"/><line style="stroke:#000000;stroke-width:1.0;" x1="6" x2="6" y1="154.75" y2="174.7188"/><line style="stroke:#000000;stroke-width:1.0;" x1="276.8047" x2="276.8047" y1="174.7188" y2="194.6875"/><line style="stroke:#000000;stroke-width:1.0;" x1="6" x2="6" y1="134.7813" y2="154.75"/><line style="stroke:#000000;stroke-width:1.0;" x1="276.8047" x2="276.8047" y1="154.75" y2="174.7188"/><rect fill="#FFFFFF" height="13.9688" style="stroke:#FFFFFF;stroke-width:1.0;" width="237.8203" x="12" y="100.8438"/><text fill="#000000" font-family="sans-serif" font-size="12" lengthAdjust="spacing" textLength="237.8203" x="12" y="111.9824">Pas encore de compte Enregistrez vous</text><!--SRC=[bP5DJm8n48RlyoicUm8JaAyGiY461JHPM27oSJ6Ir6LOctHRqivkn9N_RfTelEfSsdHcddddxSYniEo4OXWwFYcwWTUSsMWi0N5DxtohPAef8yrePVh6S8RXzNTf2ULkHJWsMbF2PA6SPa8g_CJWSWdEKCQ6SKzu5CvHbRZoWPVmsUV535yyiTm5I-6GT68iLUM9oOvCEDMMKkdOqWSM9dS1b8ycgp3LKU7_ER3qMW_IPcGzpsFnJ_BEC2AzlxW4IoKqR-8v5cITz4QrcvrMfzVirrQ2CSeLjlhOweRjNjWTO3nPOvMkG-rXEKTdSflu1QkLf3VQzzSX4eN0fropp2Z4nP5qD9dzF7WB2ccDhZu0ectyMz3lDUuauugiLuBR62Pq4BbYtv6OlTHfY9lrVMC0Sw7JNAIUJHh6ndFjAKITA_K5]--></g></svg>