<svg xmlns="http://www.w3.org/2000/svg" xmlns:xlink="http://www.w3.org/1999/xlink" contentStyleType="text/css" height="752px" preserveAspectRatio="none" style="width:562px;height:752px;background:#FFFFFF;" version="1.1" viewBox="0 0 562 752" width="562px" zoomAndPan="magnify"><defs/><g><!--cluster Application--><g id="cluster_Application"><rect fill="none" height="739" rx="2.5" ry="2.5" style="stroke:#181818;stroke-width:1.0;" width="289" x="267" y="7"/><text fill="#000000" font-family="sans-serif" font-size="14" font-weight="bold" lengthAdjust="spacing" textLength="89.2979" x="366.8511" y="21.9951">Application</text></g><g id="elem_R"><ellipse cx="411.5484" cy="57.2232" fill="#F1F1F1" rx="53.5484" ry="14.7232" style="stroke:#181818;stroke-width:0.5;"/><text fill="#000000" font-family="sans-serif" font-size="14" lengthAdjust="spacing" textLength="58.2695" x="379.4136" y="60.9707">Register</text></g><g id="elem_C"><ellipse cx="411.2626" cy="327.2207" fill="#F1F1F1" rx="53.2626" ry="14.7207" style="stroke:#181818;stroke-width:0.5;"/><text fill="#000000" font-family="sans-serif" font-size="14" lengthAdjust="spacing" textLength="57.8867" x="379.3193" y="330.9683">Connect</text></g><g id="elem_CG"><ellipse cx="411.4763" cy="393.9953" fill="#F1F1F1" rx="75.4763" ry="17.4953" style="stroke:#181818;stroke-width:0.5;"/><text fill="#000000" font-family="sans-serif" font-size="14" lengthAdjust="spacing" textLength="107.2354" x="354.8586" y="397.7428">Create a Group</text></g><g id="elem_AU"><ellipse cx="411.372" cy="472.8744" fill="#F1F1F1" rx="119.872" ry="26.3744" style="stroke:#181818;stroke-width:0.5;"/><text fill="#000000" font-family="sans-serif" font-size="14" lengthAdjust="spacing" textLength="207.0811" x="307.8314" y="475.7211">Add user in one of my groups</text></g><g id="elem_DU"><ellipse cx="411.6533" cy="563.1307" fill="#F1F1F1" rx="128.6533" ry="28.1307" style="stroke:#181818;stroke-width:0.5;"/><text fill="#000000" font-family="sans-serif" font-size="14" lengthAdjust="spacing" textLength="225.7295" x="298.7886" y="565.9773">Delete user in one of my groups</text></g><g id="elem_UP"><ellipse cx="411.3886" cy="645.1777" fill="#F1F1F1" rx="81.3886" ry="18.6777" style="stroke:#181818;stroke-width:0.5;"/><text fill="#000000" font-family="sans-serif" font-size="14" lengthAdjust="spacing" textLength="121.8643" x="349.3014" y="648.4039">Update password</text></g><g id="elem_DG"><ellipse cx="411.6537" cy="191.9307" fill="#F1F1F1" rx="75.1537" ry="17.4307" style="stroke:#181818;stroke-width:0.5;"/><text fill="#000000" font-family="sans-serif" font-size="14" lengthAdjust="spacing" textLength="106.4082" x="355.4496" y="195.6783">Delete a Group</text></g><g id="elem_CR"><ellipse cx="411.6235" cy="260.8247" fill="#F1F1F1" rx="67.1235" ry="15.8247" style="stroke:#181818;stroke-width:0.5;"/><text fill="#000000" font-family="sans-serif" font-size="14" lengthAdjust="spacing" textLength="84.875" x="366.186" y="264.5723">Change role</text></g><g id="elem_DAU"><ellipse cx="411.4388" cy="122.9878" fill="#F1F1F1" rx="70.4388" ry="16.4878" style="stroke:#181818;stroke-width:0.5;"/><text fill="#000000" font-family="sans-serif" font-size="14" lengthAdjust="spacing" textLength="94.0146" x="361.4314" y="126.7353">Delete a user</text></g><g id="elem_D"><ellipse cx="411.658" cy="713.8316" fill="#F1F1F1" rx="64.658" ry="15.3316" style="stroke:#181818;stroke-width:0.5;"/><text fill="#000000" font-family="sans-serif" font-size="14" lengthAdjust="spacing" textLength="77.7725" x="369.7718" y="717.5792">Disconnect</text></g><!--entity v--><g id="elem_v"><ellipse cx="200.7305" cy="27.5" fill="#F1F1F1" rx="8" ry="8" style="stroke:#181818;stroke-width:0.5;"/><path d="M200.7305,35.5 L200.7305,62.5 M187.7305,43.5 L213.7305,43.5 M200.7305,62.5 L187.7305,77.5 M200.7305,62.5 L213.7305,77.5 " fill="none" style="stroke:#181818;stroke-width:0.5;"/><text fill="#000000" font-family="sans-serif" font-size="14" lengthAdjust="spacing" textLength="44.4609" x="178.5" y="91.9951">Visitor</text></g><!--entity u--><g id="elem_u"><ellipse cx="62.0649" cy="443.5" fill="#F1F1F1" rx="8" ry="8" style="stroke:#181818;stroke-width:0.5;"/><path d="M62.0649,451.5 L62.0649,478.5 M49.0649,459.5 L75.0649,459.5 M62.0649,478.5 L49.0649,493.5 M62.0649,478.5 L75.0649,493.5 " fill="none" style="stroke:#181818;stroke-width:0.5;"/><text fill="#000000" font-family="sans-serif" font-size="14" lengthAdjust="spacing" textLength="112.1299" x="6" y="507.9951">Registered User</text></g><!--entity a--><g id="elem_a"><ellipse cx="200.4321" cy="185.5" fill="#F1F1F1" rx="8" ry="8" style="stroke:#181818;stroke-width:0.5;"/><path d="M200.4321,193.5 L200.4321,220.5 M187.4321,201.5 L213.4321,201.5 M200.4321,220.5 L187.4321,235.5 M200.4321,220.5 L213.4321,235.5 " fill="none" style="stroke:#181818;stroke-width:0.5;"/><text fill="#000000" font-family="sans-serif" font-size="14" lengthAdjust="spacing" textLength="44.8643" x="178" y="249.9951">Admin</text></g><!--reverse link u to a--><g id="link_u_a"><path d="M85.9461,429.6266 C111.7561,380.8466 153.43,302.08 179.28,253.22 " fill="none" id="u-backto-a" style="stroke:#181818;stroke-width:1.0;"/><polygon fill="#181818" points="83.14,434.93,90.8847,428.8456,85.4784,430.5105,83.8135,425.1042,83.14,434.93" style="stroke:#181818;stroke-width:1.0;"/></g><!--link a to DG--><g id="link_a_DG"><path d="M223.08,212.63 C251.24,209.53 295.856,204.6164 337.376,200.0464 " fill="none" id="a-to-DG" style="stroke:#181818;stroke-width:1.0;"/><polygon fill="#181818" points="343.34,199.39,333.9564,196.3987,338.37,199.937,334.8317,204.3506,343.34,199.39" style="stroke:#181818;stroke-width:1.0;"/></g><!--link a to CR--><g id="link_a_CR"><path d="M223.08,219.75 C255.52,226.89 311.8404,239.2796 355.6604,248.9296 " fill="none" id="a-to-CR" style="stroke:#181818;stroke-width:1.0;"/><polygon fill="#181818" points="361.52,250.22,353.5909,244.378,356.637,249.1447,351.8703,252.1908,361.52,250.22" style="stroke:#181818;stroke-width:1.0;"/></g><!--link a to DAU--><g id="link_a_DAU"><path d="M223.23,186.99 C233.04,176.11 245.48,164.48 259,157 C285.54,142.32 312.0938,134.9794 340.1538,130.2394 " fill="none" id="a-to-DAU" style="stroke:#181818;stroke-width:1.0;"/><polygon fill="#181818" points="346.07,129.24,336.5295,126.795,341.1398,130.0728,337.862,134.6832,346.07,129.24" style="stroke:#181818;stroke-width:1.0;"/></g><!--link v to R--><g id="link_v_R"><path d="M222.69,57 C254.13,57 308.14,57 351.88,57 " fill="none" id="v-to-R" style="stroke:#181818;stroke-width:1.0;"/><polygon fill="#181818" points="357.88,57,348.88,53,352.88,57,348.88,61,357.88,57" style="stroke:#181818;stroke-width:1.0;"/></g><!--link u to C--><g id="link_u_C"><path d="M117.64,434.83 C155.69,409.89 208.49,378.45 259,359 C292.49,346.11 326.325,338.9056 356.715,334.0556 " fill="none" id="u-to-C" style="stroke:#181818;stroke-width:1.0;"/><polygon fill="#181818" points="362.64,333.11,353.1221,330.5784,357.7025,333.898,354.3829,338.4784,362.64,333.11" style="stroke:#181818;stroke-width:1.0;"/></g><!--link u to AU--><g id="link_u_AU"><path d="M118.06,473 C164.47,473 226.52,473 285.3,473 " fill="none" id="u-to-AU" style="stroke:#181818;stroke-width:1.0;"/><polygon fill="#181818" points="291.3,473,282.3,469,286.3,473,282.3,477,291.3,473" style="stroke:#181818;stroke-width:1.0;"/></g><!--link u to DU--><g id="link_u_DU"><path d="M118.06,487.26 C174.52,501.88 257.1917,523.2955 322.0517,540.0955 " fill="none" id="u-to-DU" style="stroke:#181818;stroke-width:1.0;"/><polygon fill="#181818" points="327.86,541.6,320.1505,535.4711,323.0197,540.3463,318.1445,543.2155,327.86,541.6" style="stroke:#181818;stroke-width:1.0;"/></g><!--link u to UP--><g id="link_u_UP"><path d="M108.04,511.15 C146.02,541.5 203.01,582.91 259,608 C285.93,620.07 311.5205,627.3255 338.7805,633.1055 " fill="none" id="u-to-UP" style="stroke:#181818;stroke-width:1.0;"/><polygon fill="#181818" points="344.65,634.35,336.6754,628.5702,339.7587,633.3129,335.0161,636.3962,344.65,634.35" style="stroke:#181818;stroke-width:1.0;"/></g><!--link u to CG--><g id="link_u_CG"><path d="M118.06,460.48 C183.51,445.6 286.1593,422.2702 350.9893,407.5302 " fill="none" id="u-to-CG" style="stroke:#181818;stroke-width:1.0;"/><polygon fill="#181818" points="356.84,406.2,347.1772,404.2949,351.9644,407.3085,348.9508,412.0958,356.84,406.2" style="stroke:#181818;stroke-width:1.0;"/></g><!--link u to D--><g id="link_u_D"><path d="M87.85,511.15 C120.97,558.74 184.17,638.95 259,681 C286.69,696.56 315.1064,703.8997 344.0964,708.2497 " fill="none" id="u-to-D" style="stroke:#181818;stroke-width:1.0;"/><polygon fill="#181818" points="350.03,709.14,341.7232,703.8488,345.0854,708.398,340.5361,711.7602,350.03,709.14" style="stroke:#181818;stroke-width:1.0;"/></g><!--SRC=[VL7BQiGW5Dtx5OVPvmzA8KJ8jWJIlUYTZE2eg9bIIl-zFXAQbA4hZ_SyxlLgw9gG789URWbA1v99Eyk4J2xWygwZpk024V7OYnCjEYOAf317QkIwaxswQrjBWgruwRfybb1X5qFelJTQYj82NmnO8qaHwJUpEgSZCpXhixyImua89191O0nkzOqVZu9UgN89q1RE4jmLzqyiHHshl9-FSaw6Sjw_3dvop5wL2Ro8ySC5LHNpsvFCuupyDEDmouiX16UelM1wQb_tFVC_C-ie3_lXx9i9TDrhwT903jmgsVceQCeVKwdjp4G3V0Vv4PjatAaV]--></g></svg>