<svg xmlns="http://www.w3.org/2000/svg" xmlns:xlink="http://www.w3.org/1999/xlink" contentStyleType="text/css" height="366px" preserveAspectRatio="none" style="width:577px;height:366px;background:#FFFFFF;" version="1.1" viewBox="0 0 577 366" width="577px" zoomAndPan="magnify"><defs/><g><rect fill="#808080" height="11.6406" style="stroke:none;stroke-width:1.0;" width="283.5498" x="286.1729" y="5"/><text fill="#FFFFFF" font-family="sans-serif" font-size="10" lengthAdjust="spacing" textLength="283.5498" x="286.1729" y="14.2822">{ Administrateur | Admin@admin.fr | [Se déconnecter] }</text><text fill="#000000" font-family="sans-serif" font-size="12" lengthAdjust="spacing" textLength="171.1934" x="7" y="30.7793">Changer votre mot de passe</text><text fill="#000000" font-family="sans-serif" font-size="12" lengthAdjust="spacing" textLength="138.4043" x="183.1934" y="30.7793">Nouveau mot de passe</text><line style="stroke:#000000;stroke-width:1.0;" x1="181.1934" x2="344.1934" y1="33.6094" y2="33.6094"/><line style="stroke:#000000;stroke-width:1.0;" x1="181.1934" x2="181.1934" y1="30.6094" y2="32.6094"/><line style="stroke:#000000;stroke-width:1.0;" x1="344.1934" x2="344.1934" y1="30.6094" y2="32.6094"/><rect fill="#EEEEEE" height="17.9688" rx="5" ry="5" style="stroke:#000000;stroke-width:2.5;" width="68" x="350.6934" y="22.1406"/><text fill="#000000" font-family="sans-serif" font-size="12" lengthAdjust="spacing" textLength="48.5215" x="360.4326" y="35.2793">Modifier</text><line style="stroke:#000000;stroke-width:1.0;" x1="6" x2="179.1934" y1="18.6406" y2="18.6406"/><line style="stroke:#000000;stroke-width:1.0;" x1="179.1934" x2="347.1934" y1="43.6094" y2="43.6094"/><line style="stroke:#000000;stroke-width:1.0;" x1="179.1934" x2="347.1934" y1="18.6406" y2="18.6406"/><line style="stroke:#000000;stroke-width:1.0;" x1="347.1934" x2="422.1934" y1="43.6094" y2="43.6094"/><line style="stroke:#000000;stroke-width:1.0;" x1="347.1934" x2="422.1934" y1="18.6406" y2="18.6406"/><line style="stroke:#000000;stroke-width:1.0;" x1="6" x2="179.1934" y1="43.6094" y2="43.6094"/><line style="stroke:#000000;stroke-width:1.0;" x1="6" x2="6" y1="18.6406" y2="43.6094"/><line style="stroke:#000000;stroke-width:1.0;" x1="422.1934" x2="422.1934" y1="18.6406" y2="43.6094"/><text fill="#000000" font-family="sans-serif" font-size="12" font-weight="bold" lengthAdjust="spacing" textLength="176.0391" x="8" y="72.7168">Ceux dont je suis membre</text><ellipse cx="13.5" cy="84.0156" fill="#000000" rx="2.5" ry="2.5" style="stroke:#000000;stroke-width:0.0;"/><text fill="#000000" font-family="sans-serif" font-size="12" lengthAdjust="spacing" textLength="51.4336" x="20" y="88.6855">Ensimag</text><ellipse cx="13.5" cy="99.9844" fill="#000000" rx="2.5" ry="2.5" style="stroke:#000000;stroke-width:0.0;"/><text fill="#000000" font-family="sans-serif" font-size="12" lengthAdjust="spacing" textLength="78.4629" x="20" y="104.6543">Grenoble INP</text><ellipse cx="13.5" cy="115.9531" fill="#000000" rx="2.5" ry="2.5" style="stroke:#000000;stroke-width:0.0;"/><text fill="#000000" font-family="sans-serif" font-size="12" lengthAdjust="spacing" textLength="75.9668" x="20" y="120.623">Club gaming</text><line style="stroke:#AAAAAA;stroke-width:1.0;" x1="8" x2="185.0391" y1="128.9531" y2="128.9531"/><text fill="#000000" font-family="sans-serif" font-size="12" font-weight="bold" lengthAdjust="spacing" textLength="147.5391" x="8" y="144.5918">Ceux que j'administre</text><ellipse cx="13.5" cy="155.8906" fill="#000000" rx="2.5" ry="2.5" style="stroke:#000000;stroke-width:0.0;"/><text fill="#000000" font-family="sans-serif" font-size="12" lengthAdjust="spacing" textLength="77.6484" x="20" y="160.5605">Club Gaming</text><ellipse cx="13.5" cy="171.8594" fill="#000000" rx="2.5" ry="2.5" style="stroke:#000000;stroke-width:0.0;"/><text fill="#000000" font-family="sans-serif" font-size="12" lengthAdjust="spacing" textLength="49.7109" x="20" y="176.5293">Running</text><text fill="#000000" font-family="sans-serif" font-size="12" font-style="italic" lengthAdjust="spacing" textLength="147.7969" x="11" y="192.498">nom du nouveau groupe</text><line style="stroke:#000000;stroke-width:1.0;" x1="9" x2="180" y1="195.3281" y2="195.3281"/><line style="stroke:#000000;stroke-width:1.0;" x1="9" x2="9" y1="192.3281" y2="194.3281"/><line style="stroke:#000000;stroke-width:1.0;" x1="180" x2="180" y1="192.3281" y2="194.3281"/><rect fill="#EEEEEE" height="17.9688" rx="5" ry="5" style="stroke:#000000;stroke-width:2.5;" width="44" x="10.5" y="201.8281"/><text fill="#000000" font-family="sans-serif" font-size="12" lengthAdjust="spacing" textLength="33.0117" x="15.9941" y="214.9668">Créer</text><line style="stroke:#000000;stroke-width:1.0;" x1="7" x2="185.0391" y1="53.5938" y2="53.5938"/><line style="stroke:#000000;stroke-width:1.0;" x1="7" x2="185.0391" y1="223.2969" y2="223.2969"/><line style="stroke:#000000;stroke-width:1.0;" x1="7" x2="7" y1="53.5938" y2="76.5469"/><line style="stroke:#000000;stroke-width:1.0;" x1="185.0391" x2="185.0391" y1="53.5938" y2="76.5469"/><line style="stroke:#000000;stroke-width:1.0;" x1="7" x2="7" y1="198.3281" y2="223.2969"/><line style="stroke:#000000;stroke-width:1.0;" x1="185.0391" x2="185.0391" y1="198.3281" y2="223.2969"/><line style="stroke:#000000;stroke-width:1.0;" x1="7" x2="7" y1="164.3906" y2="180.3594"/><line style="stroke:#000000;stroke-width:1.0;" x1="185.0391" x2="185.0391" y1="164.3906" y2="180.3594"/><line style="stroke:#000000;stroke-width:1.0;" x1="7" x2="7" y1="132.4531" y2="148.4219"/><line style="stroke:#000000;stroke-width:1.0;" x1="185.0391" x2="185.0391" y1="132.4531" y2="148.4219"/><line style="stroke:#000000;stroke-width:1.0;" x1="7" x2="7" y1="108.4844" y2="124.4531"/><line style="stroke:#000000;stroke-width:1.0;" x1="185.0391" x2="185.0391" y1="108.4844" y2="124.4531"/><line style="stroke:#000000;stroke-width:1.0;" x1="7" x2="7" y1="76.5469" y2="92.5156"/><line style="stroke:#000000;stroke-width:1.0;" x1="185.0391" x2="185.0391" y1="76.5469" y2="92.5156"/><line style="stroke:#000000;stroke-width:1.0;" x1="7" x2="7" y1="180.3594" y2="198.3281"/><line style="stroke:#000000;stroke-width:1.0;" x1="185.0391" x2="185.0391" y1="180.3594" y2="198.3281"/><line style="stroke:#000000;stroke-width:1.0;" x1="7" x2="7" y1="148.4219" y2="164.3906"/><line style="stroke:#000000;stroke-width:1.0;" x1="185.0391" x2="185.0391" y1="148.4219" y2="164.3906"/><line style="stroke:#000000;stroke-width:1.0;" x1="7" x2="7" y1="124.4531" y2="132.4531"/><line style="stroke:#000000;stroke-width:1.0;" x1="185.0391" x2="185.0391" y1="124.4531" y2="132.4531"/><line style="stroke:#000000;stroke-width:1.0;" x1="7" x2="7" y1="92.5156" y2="108.4844"/><line style="stroke:#000000;stroke-width:1.0;" x1="185.0391" x2="185.0391" y1="92.5156" y2="108.4844"/><rect fill="#FFFFFF" height="13.9688" style="stroke:#FFFFFF;stroke-width:1.0;" width="76.5527" x="13" y="46.6094"/><text fill="#000000" font-family="sans-serif" font-size="12" lengthAdjust="spacing" textLength="76.5527" x="13" y="57.748">Mes groupes</text><text fill="#000000" font-family="sans-serif" font-size="12" lengthAdjust="spacing" textLength="147.3926" x="7" y="252.4043">Administration de l'Appli</text><line style="stroke:#AAAAAA;stroke-width:1.0;" x1="7" x2="557.7227" y1="260.7344" y2="260.7344"/><line style="stroke:#AAAAAA;stroke-width:1.0;" x1="558.7227" x2="569.7227" y1="260.7344" y2="260.7344"/><rect fill="#EEEEEE" height="16.9688" style="stroke:#000000;stroke-width:1.0;" width="135" x="10" y="282.2031"/><text fill="#000000" font-family="sans-serif" font-size="12" lengthAdjust="spacing" textLength="108.9609" x="12" y="295.3418">Steve@gmail.com</text><line style="stroke:#000000;stroke-width:1.0;" x1="134" x2="134" y1="282.2031" y2="299.1719"/><polygon fill="#000000" points="137,288.2031,143,288.2031,140,294.1719" style="stroke:#000000;stroke-width:1.0;"/><text fill="#000000" font-family="sans-serif" font-size="12" lengthAdjust="spacing" textLength="86.3262" x="30" y="313.3105">Adminstrateur</text><ellipse cx="17" cy="309.1563" fill="none" rx="5" ry="5" style="stroke:#000000;stroke-width:1.5;"/><text fill="#000000" font-family="sans-serif" font-size="12" lengthAdjust="spacing" textLength="61.7227" x="168" y="313.3105">Utilisateur</text><ellipse cx="155" cy="309.1563" fill="none" rx="5" ry="5" style="stroke:#000000;stroke-width:1.5;"/><ellipse cx="155" cy="309.1563" fill="#000000" rx="2" ry="2" style="stroke:#000000;stroke-width:1.5;"/><rect fill="#EEEEEE" height="17.9688" rx="5" ry="5" style="stroke:#000000;stroke-width:2.5;" width="60" x="12.5" y="320.6406"/><text fill="#000000" font-family="sans-serif" font-size="12" lengthAdjust="spacing" textLength="35.5547" x="24.7227" y="333.7793">Editer</text><line style="stroke:#000000;stroke-width:1.0;" x1="8" x2="231.7227" y1="273.2188" y2="273.2188"/><line style="stroke:#000000;stroke-width:1.0;" x1="8" x2="231.7227" y1="343.1094" y2="343.1094"/><line style="stroke:#000000;stroke-width:1.0;" x1="8" x2="8" y1="273.2188" y2="343.1094"/><line style="stroke:#000000;stroke-width:1.0;" x1="231.7227" x2="231.7227" y1="273.2188" y2="343.1094"/><rect fill="#FFFFFF" height="13.9688" style="stroke:#FFFFFF;stroke-width:1.0;" width="92.2148" x="14" y="266.2344"/><text fill="#000000" font-family="sans-serif" font-size="12" lengthAdjust="spacing" textLength="92.2148" x="14" y="277.373">Changer le role</text><rect fill="#EEEEEE" height="16.9688" style="stroke:#000000;stroke-width:1.0;" width="167" x="235.7227" y="282.2031"/><text fill="#000000" font-family="sans-serif" font-size="12" lengthAdjust="spacing" textLength="108.9609" x="237.7227" y="295.3418">Steve@gmail.com</text><line style="stroke:#000000;stroke-width:1.0;" x1="391.7227" x2="391.7227" y1="282.2031" y2="299.1719"/><polygon fill="#000000" points="394.7227,288.2031,400.7227,288.2031,397.7227,294.1719" style="stroke:#000000;stroke-width:1.0;"/><rect fill="#EEEEEE" height="17.9688" rx="5" ry="5" style="stroke:#000000;stroke-width:2.5;" width="84" x="238.2227" y="320.6406"/><text fill="#000000" font-family="sans-serif" font-size="12" lengthAdjust="spacing" textLength="62.7305" x="248.8574" y="333.7793">Supprimer</text><line style="stroke:#000000;stroke-width:1.0;" x1="233.7227" x2="405.7227" y1="273.2188" y2="273.2188"/><line style="stroke:#000000;stroke-width:1.0;" x1="233.7227" x2="405.7227" y1="343.1094" y2="343.1094"/><line style="stroke:#000000;stroke-width:1.0;" x1="233.7227" x2="233.7227" y1="273.2188" y2="343.1094"/><line style="stroke:#000000;stroke-width:1.0;" x1="405.7227" x2="405.7227" y1="273.2188" y2="343.1094"/><rect fill="#FFFFFF" height="13.9688" style="stroke:#FFFFFF;stroke-width:1.0;" width="146.1152" x="239.7227" y="266.2344"/><text fill="#000000" font-family="sans-serif" font-size="12" lengthAdjust="spacing" textLength="146.1152" x="239.7227" y="277.373">Supprimer un utilisateur</text><rect fill="#EEEEEE" height="16.9688" style="stroke:#000000;stroke-width:1.0;" width="143" x="409.7227" y="282.2031"/><text fill="#000000" font-family="sans-serif" font-size="12" lengthAdjust="spacing" textLength="55.3477" x="411.7227" y="295.3418">Groupe a</text><line style="stroke:#000000;stroke-width:1.0;" x1="541.7227" x2="541.7227" y1="282.2031" y2="299.1719"/><polygon fill="#000000" points="544.7227,288.2031,550.7227,288.2031,547.7227,294.1719" style="stroke:#000000;stroke-width:1.0;"/><rect fill="#EEEEEE" height="17.9688" rx="5" ry="5" style="stroke:#000000;stroke-width:2.5;" width="84" x="412.2227" y="320.6406"/><text fill="#000000" font-family="sans-serif" font-size="12" lengthAdjust="spacing" textLength="62.7305" x="422.8574" y="333.7793">Supprimer</text><line style="stroke:#000000;stroke-width:1.0;" x1="407.7227" x2="555.7227" y1="273.2188" y2="273.2188"/><line style="stroke:#000000;stroke-width:1.0;" x1="407.7227" x2="555.7227" y1="343.1094" y2="343.1094"/><line style="stroke:#000000;stroke-width:1.0;" x1="407.7227" x2="407.7227" y1="273.2188" y2="343.1094"/><line style="stroke:#000000;stroke-width:1.0;" x1="555.7227" x2="555.7227" y1="273.2188" y2="343.1094"/><rect fill="#FFFFFF" height="13.9688" style="stroke:#FFFFFF;stroke-width:1.0;" width="128.0684" x="413.7227" y="266.2344"/><text fill="#000000" font-family="sans-serif" font-size="12" lengthAdjust="spacing" textLength="128.0684" x="413.7227" y="277.373">Supprimer un groupe</text><line style="stroke:#000000;stroke-width:1.0;" x1="6" x2="557.7227" y1="240.2656" y2="240.2656"/><line style="stroke:#000000;stroke-width:1.0;" x1="557.7227" x2="569.7227" y1="240.2656" y2="240.2656"/><line style="stroke:#000000;stroke-width:1.0;" x1="6" x2="557.7227" y1="359.0781" y2="359.0781"/><line style="stroke:#000000;stroke-width:1.0;" x1="557.7227" x2="569.7227" y1="359.0781" y2="359.0781"/><line style="stroke:#000000;stroke-width:1.0;" x1="6" x2="6" y1="240.2656" y2="256.2344"/><line style="stroke:#000000;stroke-width:1.0;" x1="569.7227" x2="569.7227" y1="264.2344" y2="359.0781"/><line style="stroke:#000000;stroke-width:1.0;" x1="569.7227" x2="569.7227" y1="256.2344" y2="264.2344"/><line style="stroke:#000000;stroke-width:1.0;" x1="569.7227" x2="569.7227" y1="240.2656" y2="256.2344"/><line style="stroke:#000000;stroke-width:1.0;" x1="6" x2="6" y1="264.2344" y2="359.0781"/><line style="stroke:#000000;stroke-width:1.0;" x1="6" x2="6" y1="256.2344" y2="264.2344"/><!--SRC=[ZLDjQo8n4FwUNp7ufIhesHUaY1IjjdAUsvDJou5KYBlZcbussSlBjgB-eFwE_h5BTfM-m46px90yCtdcIMRIqOOgeoatfAtDXkCLMIEDKC6M04pnsNGvYmKcA0me5g-DWwzf-6UWf1LHJtAf85Pqu-1RAKm1FAsPGR8dxM-VEA4R9KmmRHGrQ1Ni2g13lQslF32V84IlBw4K0aE3wW7sP4ks2z9RKn4xaamQXP180n52IhL6jwjq9ss6r7x0Ivuka15RCST32fu0jHCiROgQLAizjCyGEU7mYA0jqv1WibHOhP8gt0ZD4XgxsK2Xa4kEyFrkx9OzRfSGKwSv9ZKtZaH_BSBZ2JsUiM39WmT5S1L-MI7yhDHcLq8c45aG1-c5gX8GcFVKwqiXUU-F_kxMc1J-VFoacwQSvTbtkGJ8A-RiudXHJgwI70iqjm2BYS4CEt526Q-7CbaSy7AbgCIxofH_Ls1c66SwHmw1yvl8rLR1GxxU5nPsXzGJcwQA9Svl1TXFc_-d8SSEllenpHlJ5p8LD_SnoI37WC9XV3K3yR__EYYY_66GCQV2p88HPAYqBy1f_QnnTb5lbYVKmD1oQ3IXSTuwlMYTNqBGdu9tLqXvC1w1bbQ5hgLz-TZI-W9Mo91crBU2SVbRy3D5CUp_E0AkxpAcfF1lZWplWxU0vaNjcXcOe79Au3uWVLnHoutR4Res5t4BPjFRsYKPkGwmD7RSA4ZFlLIZDYqGblD_]--></g></svg>