<svg xmlns="http://www.w3.org/2000/svg" xmlns:xlink="http://www.w3.org/1999/xlink" contentStyleType="text/css" height="230px" preserveAspectRatio="none" style="width:474px;height:230px;background:#FFFFFF;" version="1.1" viewBox="0 0 474 230" width="474px" zoomAndPan="magnify"><defs/><g><rect fill="#808080" height="11.6406" style="stroke:none;stroke-width:1.0;" width="235.9619" x="230.0771" y="5"/><text fill="#FFFFFF" font-family="sans-serif" font-size="10" lengthAdjust="spacing" textLength="235.9619" x="230.0771" y="14.2822">{ Utilisateur | Alice@aol.fr | [Se déconnecter] }</text><text fill="#000000" font-family="sans-serif" font-size="12" lengthAdjust="spacing" textLength="171.1934" x="7" y="30.7793">Changer votre mot de passe</text><text fill="#000000" font-family="sans-serif" font-size="12" lengthAdjust="spacing" textLength="138.4043" x="183.1934" y="30.7793">Nouveau mot de passe</text><line style="stroke:#000000;stroke-width:1.0;" x1="181.1934" x2="344.1934" y1="33.6094" y2="33.6094"/><line style="stroke:#000000;stroke-width:1.0;" x1="181.1934" x2="181.1934" y1="30.6094" y2="32.6094"/><line style="stroke:#000000;stroke-width:1.0;" x1="344.1934" x2="344.1934" y1="30.6094" y2="32.6094"/><rect fill="#EEEEEE" height="17.9688" rx="5" ry="5" style="stroke:#000000;stroke-width:2.5;" width="68" x="350.6934" y="22.1406"/><text fill="#000000" font-family="sans-serif" font-size="12" lengthAdjust="spacing" textLength="48.5215" x="360.4326" y="35.2793">Modifier</text><line style="stroke:#000000;stroke-width:1.0;" x1="6" x2="179.1934" y1="18.6406" y2="18.6406"/><line style="stroke:#000000;stroke-width:1.0;" x1="179.1934" x2="347.1934" y1="43.6094" y2="43.6094"/><line style="stroke:#000000;stroke-width:1.0;" x1="179.1934" x2="347.1934" y1="18.6406" y2="18.6406"/><line style="stroke:#000000;stroke-width:1.0;" x1="347.1934" x2="422.1934" y1="43.6094" y2="43.6094"/><line style="stroke:#000000;stroke-width:1.0;" x1="347.1934" x2="422.1934" y1="18.6406" y2="18.6406"/><line style="stroke:#000000;stroke-width:1.0;" x1="6" x2="179.1934" y1="43.6094" y2="43.6094"/><line style="stroke:#000000;stroke-width:1.0;" x1="6" x2="6" y1="18.6406" y2="43.6094"/><line style="stroke:#000000;stroke-width:1.0;" x1="422.1934" x2="422.1934" y1="18.6406" y2="43.6094"/><text fill="#000000" font-family="sans-serif" font-size="12" font-weight="bold" lengthAdjust="spacing" textLength="176.0391" x="8" y="72.7168">Ceux dont je suis membre</text><ellipse cx="13.5" cy="84.0156" fill="#000000" rx="2.5" ry="2.5" style="stroke:#000000;stroke-width:0.0;"/><text fill="#000000" font-family="sans-serif" font-size="12" lengthAdjust="spacing" textLength="51.4336" x="20" y="88.6855">Ensimag</text><ellipse cx="13.5" cy="99.9844" fill="#000000" rx="2.5" ry="2.5" style="stroke:#000000;stroke-width:0.0;"/><text fill="#000000" font-family="sans-serif" font-size="12" lengthAdjust="spacing" textLength="78.4629" x="20" y="104.6543">Grenoble INP</text><ellipse cx="13.5" cy="115.9531" fill="#000000" rx="2.5" ry="2.5" style="stroke:#000000;stroke-width:0.0;"/><text fill="#000000" font-family="sans-serif" font-size="12" font-weight="bold" lengthAdjust="spacing" textLength="84.668" x="20" y="120.623">Club gaming</text><line style="stroke:#AAAAAA;stroke-width:1.0;" x1="8" x2="185.0391" y1="128.9531" y2="128.9531"/><text fill="#000000" font-family="sans-serif" font-size="12" font-weight="bold" lengthAdjust="spacing" textLength="147.5391" x="8" y="144.5918">Ceux que j'administre</text><ellipse cx="13.5" cy="155.8906" fill="#000000" rx="2.5" ry="2.5" style="stroke:#000000;stroke-width:0.0;"/><text fill="#000000" font-family="sans-serif" font-size="12" lengthAdjust="spacing" textLength="77.6484" x="20" y="160.5605">Club Gaming</text><ellipse cx="13.5" cy="171.8594" fill="#000000" rx="2.5" ry="2.5" style="stroke:#000000;stroke-width:0.0;"/><text fill="#000000" font-family="sans-serif" font-size="12" lengthAdjust="spacing" textLength="49.7109" x="20" y="176.5293">Running</text><text fill="#000000" font-family="sans-serif" font-size="12" font-style="italic" lengthAdjust="spacing" textLength="147.7969" x="11" y="192.498">nom du nouveau groupe</text><line style="stroke:#000000;stroke-width:1.0;" x1="9" x2="180" y1="195.3281" y2="195.3281"/><line style="stroke:#000000;stroke-width:1.0;" x1="9" x2="9" y1="192.3281" y2="194.3281"/><line style="stroke:#000000;stroke-width:1.0;" x1="180" x2="180" y1="192.3281" y2="194.3281"/><rect fill="#EEEEEE" height="17.9688" rx="5" ry="5" style="stroke:#000000;stroke-width:2.5;" width="44" x="10.5" y="201.8281"/><text fill="#000000" font-family="sans-serif" font-size="12" lengthAdjust="spacing" textLength="33.0117" x="15.9941" y="214.9668">Créer</text><line style="stroke:#000000;stroke-width:1.0;" x1="7" x2="185.0391" y1="53.5938" y2="53.5938"/><line style="stroke:#000000;stroke-width:1.0;" x1="7" x2="185.0391" y1="223.2969" y2="223.2969"/><line style="stroke:#000000;stroke-width:1.0;" x1="7" x2="7" y1="53.5938" y2="76.5469"/><line style="stroke:#000000;stroke-width:1.0;" x1="185.0391" x2="185.0391" y1="53.5938" y2="76.5469"/><line style="stroke:#000000;stroke-width:1.0;" x1="7" x2="7" y1="198.3281" y2="223.2969"/><line style="stroke:#000000;stroke-width:1.0;" x1="185.0391" x2="185.0391" y1="198.3281" y2="223.2969"/><line style="stroke:#000000;stroke-width:1.0;" x1="7" x2="7" y1="164.3906" y2="180.3594"/><line style="stroke:#000000;stroke-width:1.0;" x1="185.0391" x2="185.0391" y1="164.3906" y2="180.3594"/><line style="stroke:#000000;stroke-width:1.0;" x1="7" x2="7" y1="132.4531" y2="148.4219"/><line style="stroke:#000000;stroke-width:1.0;" x1="185.0391" x2="185.0391" y1="132.4531" y2="148.4219"/><line style="stroke:#000000;stroke-width:1.0;" x1="7" x2="7" y1="108.4844" y2="124.4531"/><line style="stroke:#000000;stroke-width:1.0;" x1="185.0391" x2="185.0391" y1="108.4844" y2="124.4531"/><line style="stroke:#000000;stroke-width:1.0;" x1="7" x2="7" y1="76.5469" y2="92.5156"/><line style="stroke:#000000;stroke-width:1.0;" x1="185.0391" x2="185.0391" y1="76.5469" y2="92.5156"/><line style="stroke:#000000;stroke-width:1.0;" x1="7" x2="7" y1="180.3594" y2="198.3281"/><line style="stroke:#000000;stroke-width:1.0;" x1="185.0391" x2="185.0391" y1="180.3594" y2="198.3281"/><line style="stroke:#000000;stroke-width:1.0;" x1="7" x2="7" y1="148.4219" y2="164.3906"/><line style="stroke:#000000;stroke-width:1.0;" x1="185.0391" x2="185.0391" y1="148.4219" y2="164.3906"/><line style="stroke:#000000;stroke-width:1.0;" x1="7" x2="7" y1="124.4531" y2="132.4531"/><line style="stroke:#000000;stroke-width:1.0;" x1="185.0391" x2="185.0391" y1="124.4531" y2="132.4531"/><line style="stroke:#000000;stroke-width:1.0;" x1="7" x2="7" y1="92.5156" y2="108.4844"/><line style="stroke:#000000;stroke-width:1.0;" x1="185.0391" x2="185.0391" y1="92.5156" y2="108.4844"/><rect fill="#FFFFFF" height="13.9688" style="stroke:#FFFFFF;stroke-width:1.0;" width="76.5527" x="13" y="46.6094"/><text fill="#000000" font-family="sans-serif" font-size="12" lengthAdjust="spacing" textLength="76.5527" x="13" y="57.748">Mes groupes</text><rect fill="#EEEEEE" height="17.9688" rx="5" ry="5" style="stroke:#000000;stroke-width:2.5;" width="124" x="191.5391" y="65.0781"/><text fill="#000000" font-family="sans-serif" font-size="12" lengthAdjust="spacing" textLength="80.6484" x="213.2148" y="78.2168">Salut , ca va?</text><text fill="#000000" font-family="sans-serif" font-size="12" lengthAdjust="spacing" textLength="42.3223" x="344.0391" y="73.7168">Charlie</text><rect fill="#EEEEEE" height="17.9688" rx="5" ry="5" style="stroke:#000000;stroke-width:2.5;" width="116" x="191.5391" y="90.0469"/><text fill="#000000" font-family="sans-serif" font-size="12" lengthAdjust="spacing" textLength="80.4375" x="209.3203" y="103.1855">Super, et toi?</text><text fill="#000000" font-family="sans-serif" font-size="12" lengthAdjust="spacing" textLength="43.9277" x="344.0391" y="98.6855">Asimov</text><rect fill="#EEEEEE" height="17.9688" rx="5" ry="5" style="stroke:#000000;stroke-width:2.5;" width="148" x="191.5391" y="115.0156"/><text fill="#000000" font-family="sans-serif" font-size="12" lengthAdjust="spacing" textLength="104.6133" x="213.2324" y="128.1543">On se fait un truc</text><text fill="#000000" font-family="sans-serif" font-size="12" lengthAdjust="spacing" textLength="43.9277" x="344.0391" y="123.6543">Asimov</text><rect fill="#EEEEEE" height="17.9688" rx="5" ry="5" style="stroke:#000000;stroke-width:2.5;" width="84" x="191.5391" y="139.9844"/><text fill="#000000" font-family="sans-serif" font-size="12" lengthAdjust="spacing" textLength="59.6719" x="203.7031" y="153.123">Une idée?</text><text fill="#000000" font-family="sans-serif" font-size="12" lengthAdjust="spacing" textLength="42.3223" x="344.0391" y="148.623">Charlie</text><rect fill="#EEEEEE" height="17.9688" rx="5" ry="5" style="stroke:#000000;stroke-width:2.5;" width="84" x="346.5391" y="164.9531"/><text fill="#000000" font-family="sans-serif" font-size="12" lengthAdjust="spacing" textLength="56.3262" x="360.376" y="178.0918">Hello, oui</text><line style="stroke:#AAAAAA;stroke-width:1.0;" x1="189.0391" x2="343.0391" y1="190.9219" y2="190.9219"/><line style="stroke:#AAAAAA;stroke-width:1.0;" x1="344.0391" x2="434.0391" y1="190.9219" y2="190.9219"/><line style="stroke:#000000;stroke-width:1.0;" x1="188.0391" x2="343.0391" y1="61.5781" y2="61.5781"/><line style="stroke:#000000;stroke-width:1.0;" x1="343.0391" x2="434.0391" y1="61.5781" y2="61.5781"/><line style="stroke:#000000;stroke-width:1.0;" x1="188.0391" x2="343.0391" y1="194.4219" y2="194.4219"/><line style="stroke:#000000;stroke-width:1.0;" x1="343.0391" x2="434.0391" y1="194.4219" y2="194.4219"/><line style="stroke:#000000;stroke-width:1.0;" x1="188.0391" x2="188.0391" y1="61.5781" y2="86.5469"/><line style="stroke:#000000;stroke-width:1.0;" x1="434.0391" x2="434.0391" y1="111.5156" y2="136.4844"/><line style="stroke:#000000;stroke-width:1.0;" x1="434.0391" x2="434.0391" y1="86.5469" y2="111.5156"/><line style="stroke:#000000;stroke-width:1.0;" x1="434.0391" x2="434.0391" y1="61.5781" y2="86.5469"/><line style="stroke:#000000;stroke-width:1.0;" x1="188.0391" x2="188.0391" y1="186.4219" y2="194.4219"/><line style="stroke:#000000;stroke-width:1.0;" x1="188.0391" x2="188.0391" y1="161.4531" y2="186.4219"/><line style="stroke:#000000;stroke-width:1.0;" x1="188.0391" x2="188.0391" y1="136.4844" y2="161.4531"/><line style="stroke:#000000;stroke-width:1.0;" x1="434.0391" x2="434.0391" y1="186.4219" y2="194.4219"/><line style="stroke:#000000;stroke-width:1.0;" x1="188.0391" x2="188.0391" y1="111.5156" y2="136.4844"/><line style="stroke:#000000;stroke-width:1.0;" x1="434.0391" x2="434.0391" y1="161.4531" y2="186.4219"/><line style="stroke:#000000;stroke-width:1.0;" x1="188.0391" x2="188.0391" y1="86.5469" y2="111.5156"/><line style="stroke:#000000;stroke-width:1.0;" x1="434.0391" x2="434.0391" y1="136.4844" y2="161.4531"/><rect fill="none" height="132.8438" style="stroke:#000000;stroke-width:1.0;" width="15" x="438.0391" y="61.5781"/><line style="stroke:#000000;stroke-width:1.0;" x1="438.0391" x2="453.0391" y1="73.5781" y2="73.5781"/><line style="stroke:#000000;stroke-width:1.0;" x1="438.0391" x2="453.0391" y1="182.4219" y2="182.4219"/><path d="M445.0391,65.5781 L448.0391,70.5781 L442.0391,70.5781 L445.0391,65.5781 " fill="#000000" style="stroke:#000000;stroke-width:1.0;"/><path d="M445.0391,191.4219 L448.0391,186.4219 L442.0391,186.4219 L445.0391,191.4219 " fill="#000000" style="stroke:#000000;stroke-width:1.0;"/><text fill="#000000" font-family="sans-serif" font-size="12" lengthAdjust="spacing" textLength="152.0801" x="192.0391" y="208.5605">Une partie de LOL après?</text><line style="stroke:#000000;stroke-width:1.0;" x1="190.0391" x2="385.0391" y1="211.3906" y2="211.3906"/><line style="stroke:#000000;stroke-width:1.0;" x1="190.0391" x2="190.0391" y1="208.3906" y2="210.3906"/><line style="stroke:#000000;stroke-width:1.0;" x1="385.0391" x2="385.0391" y1="208.3906" y2="210.3906"/><rect fill="#EEEEEE" height="17.9688" rx="5" ry="5" style="stroke:#000000;stroke-width:2.5;" width="68" x="391.5391" y="199.9219"/><text fill="#000000" font-family="sans-serif" font-size="12" lengthAdjust="spacing" textLength="49.0488" x="401.0146" y="213.0605">Envoyer</text><line style="stroke:#000000;stroke-width:1.0;" x1="188.0391" x2="388.0391" y1="196.4219" y2="196.4219"/><line style="stroke:#000000;stroke-width:1.0;" x1="388.0391" x2="463.0391" y1="221.3906" y2="221.3906"/><line style="stroke:#000000;stroke-width:1.0;" x1="388.0391" x2="463.0391" y1="196.4219" y2="196.4219"/><line style="stroke:#000000;stroke-width:1.0;" x1="188.0391" x2="388.0391" y1="221.3906" y2="221.3906"/><line style="stroke:#000000;stroke-width:1.0;" x1="188.0391" x2="188.0391" y1="196.4219" y2="221.3906"/><line style="stroke:#000000;stroke-width:1.0;" x1="463.0391" x2="463.0391" y1="196.4219" y2="221.3906"/><line style="stroke:#000000;stroke-width:1.0;" x1="187.0391" x2="465.0391" y1="53.5938" y2="53.5938"/><line style="stroke:#000000;stroke-width:1.0;" x1="187.0391" x2="465.0391" y1="222.3906" y2="222.3906"/><line style="stroke:#000000;stroke-width:1.0;" x1="187.0391" x2="187.0391" y1="53.5938" y2="195.4219"/><line style="stroke:#000000;stroke-width:1.0;" x1="465.0391" x2="465.0391" y1="195.4219" y2="222.3906"/><line style="stroke:#000000;stroke-width:1.0;" x1="465.0391" x2="465.0391" y1="53.5938" y2="195.4219"/><line style="stroke:#000000;stroke-width:1.0;" x1="187.0391" x2="187.0391" y1="195.4219" y2="222.3906"/><rect fill="#FFFFFF" height="13.9688" style="stroke:#FFFFFF;stroke-width:1.0;" width="237.0059" x="193.0391" y="46.6094"/><text fill="#000000" font-family="sans-serif" font-size="12" lengthAdjust="spacing" textLength="147.2637" x="193.0391" y="57.748">Discussion sur le groupe</text><text fill="#000000" font-family="sans-serif" font-size="12" font-weight="bold" lengthAdjust="spacing" textLength="85.9277" x="344.1172" y="57.748">Club Gaming</text><rect fill="none" height="132.8438" style="stroke:#000000;stroke-width:1.0;" width="15" x="438.0391" y="61.5781"/><line style="stroke:#000000;stroke-width:1.0;" x1="438.0391" x2="453.0391" y1="73.5781" y2="73.5781"/><line style="stroke:#000000;stroke-width:1.0;" x1="438.0391" x2="453.0391" y1="182.4219" y2="182.4219"/><path d="M445.0391,65.5781 L448.0391,70.5781 L442.0391,70.5781 L445.0391,65.5781 " fill="#000000" style="stroke:#000000;stroke-width:1.0;"/><path d="M445.0391,191.4219 L448.0391,186.4219 L442.0391,186.4219 L445.0391,191.4219 " fill="#000000" style="stroke:#000000;stroke-width:1.0;"/><!--SRC=[NLFRJXin47ttLupsfP12oYL2A8gu9P2I9e0QmWkYahCxsPXwxTGURua2_rE-Wn_hU1TQWVV5dilnyJcpHvwa8oyrYOwdfSO3CKUPeOEL0BZ61phMAZTOe25mAfyJXqza-hFlR31Prshh87TooU4pQwWE_9uhGl4aEby-OCA4b5PU4WO7Zy3OAHv9gvkpUBmT8sGlpwar1bD2TmTFOYLMFqHtBatE_QKbXr1OWWnX8Rr7xaekR2XHXdVn9CADRAPcYd54ZJD2prnjMA0NZKONmmDap1dk4NnG7WeifWuR3T60K-DL8NFUzHqQEzK8vnTNVEnC3xewJ26NXJAvsEJrXlKh8Dn_aXadbATNeAguNnStu7im9kwIZZemje0iW7bbNnDBGC1jrxqyLwmVcNJIKpuDtYjhcAK3PbAN_gDIeoTYDJvd5sx7KWU23KWbbF8GxbW9rizfXLMMEzq6805PTHYJn_nIMyRS9T-0C9EA81WW5zBt-Ob1K6mGVaHjHhM_ejPs0snGTnoAmZnMwh3sdo69lGiUDONHe-7b4EJ2lVpnXvLJfwQqIpOuEbv_HsYoQYp5bPQ69gCXbEWg5RQRErixhURUsbWI38A6hJtOscrljzgx-p3gNKDChukr_jKGl0qkvIkZ8MeQYFlNnK2MCbf1gi0sN2xG37hVtW9iVQcSDN7YnU1czBzWhxLvmjACqJ4Jk1c97ivaqCGTAK-QoTimkJxRt1T3djOWSyP68xhydv1Rji44hVy2]--></g></svg>