<svg xmlns="http://www.w3.org/2000/svg" xmlns:xlink="http://www.w3.org/1999/xlink" contentStyleType="text/css" height="230px" preserveAspectRatio="none" style="width:430px;height:230px;background:#FFFFFF;" version="1.1" viewBox="0 0 430 230" width="430px" zoomAndPan="magnify"><defs/><g><rect fill="#808080" height="11.6406" style="stroke:none;stroke-width:1.0;" width="235.9619" x="186.2314" y="5"/><text fill="#FFFFFF" font-family="sans-serif" font-size="10" lengthAdjust="spacing" textLength="235.9619" x="186.2314" y="14.2822">{ Utilisateur | Alice@aol.fr | [Se déconnecter] }</text><text fill="#000000" font-family="sans-serif" font-size="12" lengthAdjust="spacing" textLength="171.1934" x="7" y="30.7793">Changer votre mot de passe</text><text fill="#000000" font-family="sans-serif" font-size="12" lengthAdjust="spacing" textLength="138.4043" x="183.1934" y="30.7793">Nouveau mot de passe</text><line style="stroke:#000000;stroke-width:1.0;" x1="181.1934" x2="344.1934" y1="33.6094" y2="33.6094"/><line style="stroke:#000000;stroke-width:1.0;" x1="181.1934" x2="181.1934" y1="30.6094" y2="32.6094"/><line style="stroke:#000000;stroke-width:1.0;" x1="344.1934" x2="344.1934" y1="30.6094" y2="32.6094"/><rect fill="#EEEEEE" height="17.9688" rx="5" ry="5" style="stroke:#000000;stroke-width:2.5;" width="68" x="350.6934" y="22.1406"/><text fill="#000000" font-family="sans-serif" font-size="12" lengthAdjust="spacing" textLength="48.5215" x="360.4326" y="35.2793">Modifier</text><line style="stroke:#000000;stroke-width:1.0;" x1="6" x2="179.1934" y1="18.6406" y2="18.6406"/><line style="stroke:#000000;stroke-width:1.0;" x1="179.1934" x2="347.1934" y1="43.6094" y2="43.6094"/><line style="stroke:#000000;stroke-width:1.0;" x1="179.1934" x2="347.1934" y1="18.6406" y2="18.6406"/><line style="stroke:#000000;stroke-width:1.0;" x1="347.1934" x2="422.1934" y1="43.6094" y2="43.6094"/><line style="stroke:#000000;stroke-width:1.0;" x1="347.1934" x2="422.1934" y1="18.6406" y2="18.6406"/><line style="stroke:#000000;stroke-width:1.0;" x1="6" x2="179.1934" y1="43.6094" y2="43.6094"/><line style="stroke:#000000;stroke-width:1.0;" x1="6" x2="6" y1="18.6406" y2="43.6094"/><line style="stroke:#000000;stroke-width:1.0;" x1="422.1934" x2="422.1934" y1="18.6406" y2="43.6094"/><text fill="#000000" font-family="sans-serif" font-size="12" font-weight="bold" lengthAdjust="spacing" textLength="176.0391" x="8" y="72.7168">Ceux dont je suis membre</text><ellipse cx="13.5" cy="84.0156" fill="#000000" rx="2.5" ry="2.5" style="stroke:#000000;stroke-width:0.0;"/><text fill="#000000" font-family="sans-serif" font-size="12" lengthAdjust="spacing" textLength="51.4336" x="20" y="88.6855">Ensimag</text><ellipse cx="13.5" cy="99.9844" fill="#000000" rx="2.5" ry="2.5" style="stroke:#000000;stroke-width:0.0;"/><text fill="#000000" font-family="sans-serif" font-size="12" lengthAdjust="spacing" textLength="78.4629" x="20" y="104.6543">Grenoble INP</text><ellipse cx="13.5" cy="115.9531" fill="#000000" rx="2.5" ry="2.5" style="stroke:#000000;stroke-width:0.0;"/><text fill="#000000" font-family="sans-serif" font-size="12" lengthAdjust="spacing" textLength="75.9668" x="20" y="120.623">Club gaming</text><line style="stroke:#AAAAAA;stroke-width:1.0;" x1="8" x2="185.0391" y1="128.9531" y2="128.9531"/><text fill="#000000" font-family="sans-serif" font-size="12" font-weight="bold" lengthAdjust="spacing" textLength="147.5391" x="8" y="144.5918">Ceux que j'administre</text><ellipse cx="13.5" cy="155.8906" fill="#000000" rx="2.5" ry="2.5" style="stroke:#000000;stroke-width:0.0;"/><text fill="#000000" font-family="sans-serif" font-size="12" lengthAdjust="spacing" textLength="77.6484" x="20" y="160.5605">Club Gaming</text><ellipse cx="13.5" cy="171.8594" fill="#000000" rx="2.5" ry="2.5" style="stroke:#000000;stroke-width:0.0;"/><text fill="#000000" font-family="sans-serif" font-size="12" lengthAdjust="spacing" textLength="49.7109" x="20" y="176.5293">Running</text><text fill="#000000" font-family="sans-serif" font-size="12" font-style="italic" lengthAdjust="spacing" textLength="147.7969" x="11" y="192.498">nom du nouveau groupe</text><line style="stroke:#000000;stroke-width:1.0;" x1="9" x2="180" y1="195.3281" y2="195.3281"/><line style="stroke:#000000;stroke-width:1.0;" x1="9" x2="9" y1="192.3281" y2="194.3281"/><line style="stroke:#000000;stroke-width:1.0;" x1="180" x2="180" y1="192.3281" y2="194.3281"/><rect fill="#EEEEEE" height="17.9688" rx="5" ry="5" style="stroke:#000000;stroke-width:2.5;" width="44" x="10.5" y="201.8281"/><text fill="#000000" font-family="sans-serif" font-size="12" lengthAdjust="spacing" textLength="33.0117" x="15.9941" y="214.9668">Créer</text><line style="stroke:#000000;stroke-width:1.0;" x1="7" x2="185.0391" y1="53.5938" y2="53.5938"/><line style="stroke:#000000;stroke-width:1.0;" x1="7" x2="185.0391" y1="223.2969" y2="223.2969"/><line style="stroke:#000000;stroke-width:1.0;" x1="7" x2="7" y1="53.5938" y2="76.5469"/><line style="stroke:#000000;stroke-width:1.0;" x1="185.0391" x2="185.0391" y1="53.5938" y2="76.5469"/><line style="stroke:#000000;stroke-width:1.0;" x1="7" x2="7" y1="198.3281" y2="223.2969"/><line style="stroke:#000000;stroke-width:1.0;" x1="185.0391" x2="185.0391" y1="198.3281" y2="223.2969"/><line style="stroke:#000000;stroke-width:1.0;" x1="7" x2="7" y1="164.3906" y2="180.3594"/><line style="stroke:#000000;stroke-width:1.0;" x1="185.0391" x2="185.0391" y1="164.3906" y2="180.3594"/><line style="stroke:#000000;stroke-width:1.0;" x1="7" x2="7" y1="132.4531" y2="148.4219"/><line style="stroke:#000000;stroke-width:1.0;" x1="185.0391" x2="185.0391" y1="132.4531" y2="148.4219"/><line style="stroke:#000000;stroke-width:1.0;" x1="7" x2="7" y1="108.4844" y2="124.4531"/><line style="stroke:#000000;stroke-width:1.0;" x1="185.0391" x2="185.0391" y1="108.4844" y2="124.4531"/><line style="stroke:#000000;stroke-width:1.0;" x1="7" x2="7" y1="76.5469" y2="92.5156"/><line style="stroke:#000000;stroke-width:1.0;" x1="185.0391" x2="185.0391" y1="76.5469" y2="92.5156"/><line style="stroke:#000000;stroke-width:1.0;" x1="7" x2="7" y1="180.3594" y2="198.3281"/><line style="stroke:#000000;stroke-width:1.0;" x1="185.0391" x2="185.0391" y1="180.3594" y2="198.3281"/><line style="stroke:#000000;stroke-width:1.0;" x1="7" x2="7" y1="148.4219" y2="164.3906"/><line style="stroke:#000000;stroke-width:1.0;" x1="185.0391" x2="185.0391" y1="148.4219" y2="164.3906"/><line style="stroke:#000000;stroke-width:1.0;" x1="7" x2="7" y1="124.4531" y2="132.4531"/><line style="stroke:#000000;stroke-width:1.0;" x1="185.0391" x2="185.0391" y1="124.4531" y2="132.4531"/><line style="stroke:#000000;stroke-width:1.0;" x1="7" x2="7" y1="92.5156" y2="108.4844"/><line style="stroke:#000000;stroke-width:1.0;" x1="185.0391" x2="185.0391" y1="92.5156" y2="108.4844"/><rect fill="#FFFFFF" height="13.9688" style="stroke:#FFFFFF;stroke-width:1.0;" width="76.5527" x="13" y="46.6094"/><text fill="#000000" font-family="sans-serif" font-size="12" lengthAdjust="spacing" textLength="76.5527" x="13" y="57.748">Mes groupes</text><!--SRC=[NPB1RXen48RlVeeHboGhGKc2K8HGHBCqg9HDKO1SebOokyFYr3kczfW6qJnGdYClrjcGg6hjoyplcK-_PZm8h3q7RLdr0-yiNgerwW8zx1N071_vepKbOON4u4svPf6lTFvZv5sa8dNMUIYztebyxOWFmg-rOLHFgl_XFoOis5WJD6Fqy1k4dUD0EzjQrUdz3A5uUSuT4UQC_XiygRtQVrVfMbCf_Ll77g5o30N2HeU0qjMuSN6BElwZDsfSvWgpCi9H1qw6GRowkC6WaYJ5-0Y5U8O7X11DW0ghfSSaKGbyec0gNKeqyaXkQH4-tqmbJMrSGgahGwLgoda7_Om83qUwa0SJ-8toMZmw52Tm6udggD4tb-GgA2BGc_M3gmOek4_zo_F1Sdq7ICNhTjJKQk95De4j-c0SmMdhh7tMQNMFPvfX72sqkz0-xvrsUkSNa0tdK3-VgEFHT0B1HP_BS6jhPXbP-a_KM6zrROfDXJtuka4Q3x-y2pA1hV6EwiMhyLtsjw3RQLuPXXbwSG9tcHhYIaVBqf7BmAdimM9-tRnG4rbQrAMmaLGgtuNzhWSKhVq3]--></g></svg>